<?xml version="1.0" encoding="utf-8"?><!DOCTYPE svg PUBLIC "-//W3C//DTD SVG 1.1//EN" "http://www.w3.org/Graphics/SVG/1.1/DTD/svg11.dtd"><svg version="1.1" xmlns="http://www.w3.org/2000/svg" xmlns:xlink="http://www.w3.org/1999/xlink" width="24" height="24" viewBox="0 0 24 24" data-tags="brightness_4"><g fill="#444" transform="scale(0.0234375 0.0234375)"><path d="M512 768q106 0 181-75t75-181-75-181-181-75q-52 0-106 24 66 30 107 93t41 139-41 139-107 93q54 24 106 24zM854 370l140 142-140 142v200h-200l-142 140-142-140h-200v-200l-140-142 140-142v-200h200l142-140 142 140h200v200z" /></g></svg>